Coordinates
version=1
nRows=9
nColumns=36
inDegrees=yes

Units are S.I. units (second, meters, Newtons, ...)
If the header above contains a line with 'inDegrees', this indicates whether rotational values are in degrees (yes) or radians (no).

endheader
time	pelvis_tilt	pelvis_list	pelvis_rotation	pelvis_tx	pelvis_ty	pelvis_tz	hip_flexion_r	hip_adduction_r	hip_rotation_r	knee_angle_r	knee_angle_r_beta	ankle_angle_r	subtalar_angle_r	mtp_angle_r	hip_flexion_l	hip_adduction_l	hip_rotation_l	knee_angle_l	knee_angle_l_beta	ankle_angle_l	subtalar_angle_l	mtp_angle_l	lumbar_extension	lumbar_bending	lumbar_rotation	arm_flex_r	arm_add_r	arm_rot_r	elbow_flex_r	pro_sup_r	arm_flex_l	arm_add_l	arm_rot_l	elbow_flex_l	pro_sup_l
      0.00000000	      2.20065217	      1.50427226	      3.43278469	     -0.14560860	      0.91679088	     -0.26582384	     23.50645253	     -1.44532958	     -5.33755597	      3.08340083	      0.05381550	      0.03302870	     -4.90726708	     -4.91929101	    -23.49489055	      1.95021723	      0.53414546	     11.59655566	      0.20239808	     12.67531097	      0.86333986	     -4.91929101	     -7.22416088	     -1.10749886	     -9.90313962	    -14.46451797	     -2.82723317	    -18.29542440	     27.98610195	    110.48366627	     17.94796940	     -8.66996269	      4.12286914	     55.45941119	    105.21832474
      0.01000000	      2.18800600	      1.00323704	      3.30955225	     -0.12951684	      0.91643804	     -0.26378857	     23.55840408	     -0.68138212	     -5.50770063	      4.38653599	      0.07655950	     -2.04684413	     -5.56630278	     -4.95509968	    -23.39815474	      1.17215103	     -0.20402277	     13.32765366	      0.23261144	     10.81191582	      0.58926648	     -4.95509968	     -6.89957006	     -0.50498265	     -9.58804440	    -14.56508084	     -2.98652450	    -18.34657664	     27.48827169	    110.83558034	     17.31723387	     -8.40577948	      4.06613165	     55.08505885	    105.61187645
      0.02000000	      1.99510620	      0.52357399	      3.12771795	     -0.11348782	      0.91592468	     -0.26158625	     23.60686600	      0.18428432	     -4.23758097	      5.31524497	      0.09276853	     -5.49120909	     -8.84165045	     -5.09460621	    -23.09699903	      0.48820790	     -0.45387716	     15.07400329	      0.26309099	      9.08995624	     -0.01018653	     -5.09460621	     -6.36118236	      0.05965310	     -9.38938573	    -14.55984254	     -3.14033835	    -18.47020371	     26.93320508	    111.81092692	     16.45116668	     -8.12361311	      3.55617539	     54.72075898	    106.96609557
      0.03000000	      2.05422050	     -0.05575288	      2.95205492	     -0.09731803	      0.91597104	     -0.25950961	     23.57746846	      1.02888583	     -4.20093659	      6.81044270	      0.11886465	     -6.62637018	     -9.10509188	     -5.11857312	    -22.88644036	     -0.36321406	     -1.05925329	     17.08200168	      0.29813717	      7.17090921	     -0.15163327	     -5.11857312	     -6.14188514	      0.77981690	     -9.07584912	    -14.66295491	     -3.30814729	    -18.55217704	     26.79446111	    111.89394698	     15.66048654	     -7.84030063	      3.45812952	     54.47373959	    107.12490054
      0.04000000	      1.87870897	     -0.64497510	      2.66975918	     -0.08128211	      0.91598797	     -0.25716500	     23.75417805	      2.00730499	     -3.10518910	      8.27623408	      0.14444753	     -8.87548354	    -11.81986195	     -5.37147520	    -22.18906145	     -1.15852643	     -1.50304277	     19.42024535	      0.33894722	      4.84570681	     -0.96547375	     -5.37147520	     -5.65942281	      1.48093813	     -8.75979502	    -14.65862521	     -3.48457983	    -18.76844556	     26.52788953	    112.38945035	     14.62702513	     -7.45968217	      2.71419010	     54.08013106	    108.46406180
      0.05000000	      1.92529393	     -1.31581887	      2.36290238	     -0.06527058	      0.91661195	     -0.25486809	     23.77567342	      3.00465806	     -2.68035470	     10.11099531	      0.17647016	     -9.13804823	    -12.56934203	     -5.40260176	    -21.43297965	     -2.10621107	     -2.20867514	     22.19539865	      0.38738279	      2.30528944	     -1.44042941	     -5.40260176	     -5.47509512	      2.29597995	     -8.29903107	    -14.63884451	     -3.68125016	    -18.86953692	     26.41640037	    112.39025654	     13.69499230	     -7.07708830	      2.43011896	     53.65695597	    108.50080853
      0.06000000	      1.89072213	     -1.90322566	      1.97918497	     -0.04958831	      0.91745551	     -0.25249905	     23.82667982	      3.99736195	     -1.71110999	     11.91428738	      0.20794354	     -9.82518299	    -14.59207571	     -5.52358263	    -20.29496937	     -2.87267796	     -2.55275870	     25.33852210	      0.44224064	     -1.08258162	     -3.13544687	     -5.52358263	     -5.25564677	      3.00882854	     -7.84827982	    -14.49452015	     -3.86581702	    -19.07009207	     26.31614498	    112.43448654	     12.65600455	     -6.62787835	      1.70778352	     53.19754448	    108.76554835
      0.07000000	      2.03482365	     -2.66860216	      1.58972472	     -0.03405368	      0.91877104	     -0.25001514	     23.58728791	      5.16694362	     -1.12210805	     13.64422231	      0.23813660	     -9.31026944	    -15.48291994	     -5.54898846	    -19.02984775	     -3.99642279	     -3.27433151	     28.95356846	      0.50533510	     -4.13331064	     -3.59122303	     -5.54898846	     -5.28801937	      3.90940480	     -7.24014620	    -14.35253602	     -4.09358651	    -19.11794154	     26.33879478	    112.44363838	     11.74229015	     -6.18067708	      1.35157410	     52.59276776	    108.74934798
      0.08000000	      1.98419638	     -3.24905648	      1.15791880	     -0.01905226	      0.92003941	     -0.24769696	     23.49971347	      6.16725880	     -0.31148217	     15.28181859	      0.26671805	     -9.10854395	    -16.93031768	     -5.62570802	    -17.26223479	     -4.77119068	     -3.44574621	     32.82249314	      0.57286057	     -8.28835507	     -5.79383193	     -5.62570802	     -5.15312064	      4.61682622	     -6.62499996	    -14.14753953	     -4.26889705	    -19.30527479	     26.49136743	    112.48273338	     10.81914752	     -5.62360837	      0.57161381	     51.76990096	    108.87405496
